ffmpeg version 4.2.4-1ubuntu0.1 Copyright (c) 2000-2020 the FFmpeg developers
  built with gcc 9 (Ubuntu 9.3.0-10ubuntu2)
  configuration: --prefix=/usr --extra-version=1ubuntu0.1 --toolchain=hardened --libdir=/usr/lib/x86_64-linux-gnu --incdir=/usr/include/x86_64-linux-gnu --arch=amd64 --enable-gpl --disable-stripping --enable-avresample --disable-filter=resample --enable-avisynth --enable-gnutls --enable-ladspa --enable-libaom --enable-libass --enable-libbluray --enable-libbs2b --enable-libcaca --enable-libcdio --enable-libcodec2 --enable-libflite --enable-libfontconfig --enable-libfreetype --enable-libfribidi --enable-libgme --enable-libgsm --enable-libjack --enable-libmp3lame --enable-libmysofa --enable-libopenjpeg --enable-libopenmpt --enable-libopus --enable-libpulse --enable-librsvg --enable-librubberband --enable-libshine --enable-libsnappy --enable-libsoxr --enable-libspeex --enable-libssh --enable-libtheora --enable-libtwolame --enable-libvidstab --enable-libvorbis --enable-libvpx --enable-libwavpack --enable-libwebp --enable-libx265 --enable-libxml2 --enable-libxvid --enable-libzmq --enable-libzvbi --enable-lv2 --enable-omx --enable-openal --enable-opencl --enable-opengl --enable-sdl2 --enable-libdc1394 --enable-libdrm --enable-libiec61883 --enable-nvenc --enable-chromaprint --enable-frei0r --enable-libx264 --enable-shared
  WARNING: library configuration mismatch
  avcodec     configuration: --prefix=/usr --extra-version=1ubuntu0.1 --toolchain=hardened --libdir=/usr/lib/x86_64-linux-gnu --incdir=/usr/include/x86_64-linux-gnu --arch=amd64 --enable-gpl --disable-stripping --enable-avresample --disable-filter=resample --enable-avisynth --enable-gnutls --enable-ladspa --enable-libaom --enable-libass --enable-libbluray --enable-libbs2b --enable-libcaca --enable-libcdio --enable-libcodec2 --enable-libflite --enable-libfontconfig --enable-libfreetype --enable-libfribidi --enable-libgme --enable-libgsm --enable-libjack --enable-libmp3lame --enable-libmysofa --enable-libopenjpeg --enable-libopenmpt --enable-libopus --enable-libpulse --enable-librsvg --enable-librubberband --enable-libshine --enable-libsnappy --enable-libsoxr --enable-libspeex --enable-libssh --enable-libtheora --enable-libtwolame --enable-libvidstab --enable-libvorbis --enable-libvpx --enable-libwavpack --enable-libwebp --enable-libx265 --enable-libxml2 --enable-libxvid --enable-libzmq --enable-libzvbi --enable-lv2 --enable-omx --enable-openal --enable-opencl --enable-opengl --enable-sdl2 --enable-libdc1394 --enable-libdrm --enable-libiec61883 --enable-nvenc --enable-chromaprint --enable-frei0r --enable-libx264 --enable-shared --enable-version3 --disable-doc --disable-programs --enable-libaribb24 --enable-liblensfun --enable-libopencore_amrnb --enable-libopencore_amrwb --enable-libtesseract --enable-libvo_amrwbenc
  libavutil      56. 31.100 / 56. 31.100
  libavcodec     58. 54.100 / 58. 54.100
  libavformat    58. 29.100 / 58. 29.100
  libavdevice    58.  8.100 / 58.  8.100
  libavfilter     7. 57.100 /  7. 57.100
  libavresample   4.  0.  0 /  4.  0.  0
  libswscale      5.  5.100 /  5.  5.100
  libswresample   3.  5.100 /  3.  5.100
  libpostproc    55.  5.100 / 55.  5.100
Input #0, image2pipe, from 'pipe:':
  Duration: N/A, bitrate: N/A
    Stream #0:0: Video: ppm, rgb24, 320x240, 20 fps, 20 tbr, 20 tbn, 20 tbc
Stream mapping:
  Stream #0:0 -> #0:0 (ppm (native) -> h264 (libx264))
[libx264 @ 0x5619b1fbaf40] using cpu capabilities: MMX2 SSE2Fast SSSE3 SSE4.2 AVX FMA3 BMI2 AVX2
[libx264 @ 0x5619b1fbaf40] profile High, level 1.3
[libx264 @ 0x5619b1fbaf40] 264 - core 155 r2917 0a84d98 - H.264/MPEG-4 AVC codec - Copyleft 2003-2018 - http://www.videolan.org/x264.html - options: cabac=1 ref=3 deblock=1:0:0 analyse=0x3:0x113 me=hex subme=7 psy=1 psy_rd=1.00:0.00 mixed_ref=1 me_range=16 chroma_me=1 trellis=1 8x8dct=1 cqm=0 deadzone=21,11 fast_pskip=1 chroma_qp_offset=-2 threads=7 lookahead_threads=1 sliced_threads=0 nr=0 decimate=1 interlaced=0 bluray_compat=0 constrained_intra=0 bframes=3 b_pyramid=2 b_adapt=1 b_bias=0 direct=1 weightb=1 open_gop=0 weightp=2 keyint=250 keyint_min=20 scenecut=40 intra_refresh=0 rc_lookahead=40 rc=abr mbtree=1 bitrate=400 ratetol=1.0 qcomp=0.60 qpmin=0 qpmax=69 qpstep=4 ip_ratio=1.40 aq=1:1.00
Output #0, mp4, to './mission_records/01e2ced8-3975-49c2-916d-41e8d443c9bc/video.mp4':
  Metadata:
    encoder         : Lavf58.29.100
    Stream #0:0: Video: h264 (libx264) (avc1 / 0x31637661), yuv420p, 320x240, q=-1--1, 400 kb/s, 20 fps, 10240 tbn, 20 tbc
    Metadata:
      encoder         : Lavc58.54.100 libx264
    Side data:
      cpb: bitrate max/min/avg: 0/0/400000 buffer size: 0 vbv_delay: -1
frame=   32 fps=0.0 q=0.0 size=       0kB time=00:00:00.00 bitrate=N/A speed=   0x    frame=   42 fps= 39 q=0.0 size=       0kB time=00:00:00.00 bitrate=N/A speed=   0x    frame=   51 fps= 32 q=0.0 size=       0kB time=00:00:00.00 bitrate=N/A speed=   0x    frame=   60 fps= 28 q=30.0 size=       0kB time=00:00:00.30 bitrate=   1.3kbits/s speed=0.142x    frame=   70 fps= 26 q=26.0 size=       0kB time=00:00:00.80 bitrate=   0.5kbits/s speed=0.302x    frame=   80 fps= 25 q=26.0 size=       0kB time=00:00:01.30 bitrate=   0.3kbits/s speed=0.409x    frame=   89 fps= 24 q=25.0 size=       0kB time=00:00:01.75 bitrate=   0.2kbits/s speed=0.472x    frame=   98 fps= 23 q=25.0 size=       0kB time=00:00:02.20 bitrate=   0.2kbits/s speed=0.52x    frame=  107 fps= 22 q=25.0 size=       0kB time=00:00:02.65 bitrate=   0.1kbits/s speed=0.556x    frame=  117 fps= 22 q=25.0 size=       0kB time=00:00:03.15 bitrate=   0.1kbits/s speed=0.591x    frame=  126 fps= 22 q=25.0 size=       0kB time=00:00:03.60 bitrate=   0.1kbits/s speed=0.616x    frame=  135 fps= 21 q=25.0 size=       0kB time=00:00:04.05 bitrate=   0.1kbits/s speed=0.637x    frame=  145 fps= 21 q=25.0 size=       0kB time=00:00:04.55 bitrate=   0.1kbits/s speed=0.66x    frame=  155 fps= 21 q=26.0 size=       0kB time=00:00:05.05 bitrate=   0.1kbits/s speed=0.679x    frame=  164 fps= 21 q=26.0 size=     256kB time=00:00:05.50 bitrate= 381.4kbits/s speed=0.691x    frame=  173 fps= 20 q=25.0 size=     256kB time=00:00:05.95 bitrate= 352.5kbits/s speed=0.699x    frame=  182 fps= 20 q=26.0 size=     256kB time=00:00:06.40 bitrate= 327.7kbits/s speed=0.709x    frame=  191 fps= 20 q=26.0 size=     256kB time=00:00:06.85 bitrate= 306.2kbits/s speed=0.719x    frame=  200 fps= 20 q=26.0 size=     256kB time=00:00:07.30 bitrate= 287.3kbits/s speed=0.726x    frame=  209 fps= 20 q=26.0 size=     256kB time=00:00:07.75 bitrate= 270.6kbits/s speed=0.735x    frame=  218 fps= 20 q=26.0 size=     256kB time=00:00:08.20 bitrate= 255.8kbits/s speed=0.74x    frame=  227 fps= 20 q=26.0 size=     256kB time=00:00:08.65 bitrate= 242.5kbits/s speed=0.746x    frame=  237 fps= 20 q=26.0 size=     256kB time=00:00:09.15 bitrate= 229.2kbits/s speed=0.755x    frame=  246 fps= 19 q=26.0 size=     256kB time=00:00:09.60 bitrate= 218.5kbits/s speed=0.759x    frame=  255 fps= 19 q=26.0 size=     256kB time=00:00:10.05 bitrate= 208.7kbits/s speed=0.761x    frame=  264 fps= 19 q=26.0 size=     512kB time=00:00:10.50 bitrate= 399.5kbits/s speed=0.764x    frame=  268 fps= 19 q=-1.0 Lsize=     641kB time=00:00:13.25 bitrate= 396.1kbits/s speed=0.934x    
video:637kB audio:0kB subtitle:0kB other streams:0kB global headers:0kB muxing overhead: 0.619320%
[libx264 @ 0x5619b1fbaf40] frame I:2     Avg QP:19.56  size:  9714
[libx264 @ 0x5619b1fbaf40] frame P:69    Avg QP:19.95  size:  4791
[libx264 @ 0x5619b1fbaf40] frame B:197   Avg QP:22.64  size:  1529
[libx264 @ 0x5619b1fbaf40] consecutive B-frames:  1.9%  0.0%  1.1% 97.0%
[libx264 @ 0x5619b1fbaf40] mb I  I16..4: 18.8% 51.7% 29.5%
[libx264 @ 0x5619b1fbaf40] mb P  I16..4:  4.5%  2.5%  1.7%  P16..4: 21.1% 32.1% 30.1%  0.0%  0.0%    skip: 7.8%
[libx264 @ 0x5619b1fbaf40] mb B  I16..4:  0.1%  0.0%  0.0%  B16..8: 50.5% 15.3%  5.8%  direct: 4.7%  skip:23.7%  L0:45.1% L1:48.0% BI: 6.9%
[libx264 @ 0x5619b1fbaf40] final ratefactor: 20.77
[libx264 @ 0x5619b1fbaf40] 8x8 transform intra:33.7% inter:47.8%
[libx264 @ 0x5619b1fbaf40] coded y,uvDC,uvAC intra: 51.9% 50.8% 31.3% inter: 21.5% 19.4% 3.0%
[libx264 @ 0x5619b1fbaf40] i16 v,h,dc,p:  6% 48% 46%  1%
[libx264 @ 0x5619b1fbaf40] i8 v,h,dc,ddl,ddr,vr,hd,vl,hu:  6% 20% 20%  5% 11%  6% 14%  5% 12%
[libx264 @ 0x5619b1fbaf40] i4 v,h,dc,ddl,ddr,vr,hd,vl,hu: 14% 22% 19%  6%  8%  8% 10%  6%  7%
[libx264 @ 0x5619b1fbaf40] i8c dc,h,v,p: 44% 44%  9%  2%
[libx264 @ 0x5619b1fbaf40] Weighted P-Frames: Y:7.2% UV:1.4%
[libx264 @ 0x5619b1fbaf40] ref P L0: 79.0%  6.6% 11.0%  3.2%  0.2%
[libx264 @ 0x5619b1fbaf40] ref B L0: 93.0%  6.2%  0.8%
[libx264 @ 0x5619b1fbaf40] ref B L1: 96.7%  3.3%
[libx264 @ 0x5619b1fbaf40] kb/s:388.84
